<svg version="1.0" xmlns="http://www.w3.org/2000/svg" width="1200px" height="488px" viewBox="0 0 12000 4880" preserveAspectRatio="xMidYMid meet"><g fill="#000000"><path d="M10820 4712 c0-9 39-96 111-249 16-34 29-68 29-75 0-8 4-18 9-23 4-6 29-56 54-112 l45-103-18-37 c-10-21-35-78-56-128-20-49-46-110-57-135-30-68-81-188-111-260-15-36-43-99-61-140-75-166-89-198-121-280-19-47-34-91-34-97 0-10 37-13 153-13 l153 0 17 35 c9 20 17 44 17 53 0 10 4 22 9 27 5 6 26 53 46 105 20 52 47 122 61 155 14 33 29 69 33 80 5 11 22 54 40 95 17 41 39 99 49 129 10 30 23 56 29 58 11 4 31-40 63-137 18-53 54-150 160-430 28-74 54-143 57-152 5-16 21-18 159-18 117 0 154 3 154 13 0 6-12 39-26 72-14 33-38 92-53 130-15 39-37 90-49 115-21 46-54 127-143 350-27 69-56 139-64 155-17 35-83 197-127 310-17 44-35 85-39 91-5 6-24 51-43 100-58 150-106 268-121 294-14 25-15 25-169 28-86 1-156-1-156-6z"/><path d="M715 4175 c-115-30-165-52-241-108-66-49-163-169-194-242-92-216-102-425-28-639 56-162 170-305 298-371 64-33 214-75 291-81 129-11 318 28 418 87 138 81 245 211 287 348 26 85 32 81-129 81 l-143 0-43-66 c-57-86-121-136-213-164-139-42-280-12-383 82-30 27-55 55-55 61 0 6-7 18-16 28-8 9-26 49-40 89-20 60-24 91-24 191 0 101 4 128 24 183 68 179 196 276 366 276 94 0 190-29 247-76 55-44 60-50 109-122 l35-53 142 3 142 3-3 25 c-7 48-55 156-97 215-47 66-121 139-160 157-14 6-25 15-25 19 0 12-126 58-216 79-116 27-234 26-349-5z"/><path d="M3409 4177 c-36-13-86-35-111-50-99-57-184-190-215-332-31-141-16-345 33-451 13-28 24-56 24-62 0-6 3-12 8-14 4-1 20-22 36-46 29-42 93-95 157-128 120-62 321-59 434 6 51 30 112 87 132 123 19 38 26 28 28-41 1-31 3-72 4-89 l1-33 140 0 140 0 1 243 c1 133 1 269 1 302 0 33-1 178-1 323 l-1 262-129 0 c-71 0-136-3-145-6-13-5-16-24-17-103 0-79-2-92-12-77-37 61-106 121-177 154-67 32-85 36-170 39-78 2-107-2-161-20z m345-251 c110-49 167-138 174-274 12-221-107-361-298-350-182 10-284 147-267 362 3 40 12 89 21 110 61 146 228 215 370 152z"/><path d="M4805 4193 c-132-30-228-104-283-218-48-100-52-137-52-540 l0-375 145 0 144 0 3 364 3 364 40 57 c57 82 108 109 206 110 112 0 185-44 234-142 l30-58 3-348 3-348 142 3 142 3 0 560 0 560-120 3 c-174 4-165 10-165-98 0-50-4-90-8-90-5 0-22 20-39 44-64 90-209 157-336 155-40-1-81-3-92-6z"/><path d="M6105 4177 c-96-32-122-47-181-106-60-59-92-110-130-207-25-65-27-79-27-234 0-145 3-173 22-230 36-103 80-177 138-230 98-90 205-125 358-118 81 3 101 8 159 38 66 33 151 108 162 143 18 57 24-8 24-263 l0-280 145 0 145 0-2 748-3 747-140 0-140 0-3-92 c-1-51-7-93-11-93-5 0-15 10-24 23-36 54-97 106-162 137-61 29-82 34-165 37-79 3-106 0-165-20z m332-248 c68-25 135-89 166-159 26-56 30-224 8-280-25-62-88-135-138-161-67-34-207-35-269-2-100 53-149 153-148 298 2 171 52 247 204 313 41 17 115 14 177-9z"/><path d="M8808 4176 c-135-47-218-119-275-238-42-87-50-119-63-228-24-208 36-416 152-530 109-107 263-153 422-125 112 20 189 69 264 168 l21 29 3-94 3-93 148-3 147-3 0 560 0 560-140 3 c-77 2-145 2-150 0-6-2-10-45-10-99 l0-96-42 56 c-53 68-112 108-202 136-92 28-190 27-278-3z m364-260 c60-30 101-74 137-143 17-35 21-60 21-146 0-89-3-110-25-154-58-122-131-168-265-168-101 0-150 22-211 95-67 80-88 227-49 351 26 84 69 135 144 171 82 38 165 36 248-6z"/><path d="M7182 4182 c-10-7-12-162-10-748 l3-739 148-3 148-3-2 276 c-1 151 0 277 2 280 3 2 26-23 51-55 37-46 63-67 122-96 64-31 87-37 163-41 221-13 374 81 438 270 25 73 30 198 25 542 l-5 320-135 0-135 0-5-345-5-345-26-60 c-32-72-85-118-166-141-48-14-65-15-112-4-91 20-168 87-201 175-5 14-10 174-10 357-1 196-5 339-11 350-9 16-24 18-137 18-70 0-133-4-140-8z"/><path d="M4253 1761 c-50-13-165-75-205-111-52-46-117-157-140-238-45-158-31-390 31-515 50-99 57-109 113-159 135-123 346-154 515-77 44 20 134 101 166 149 15 24 16 21 16-77 l1-103 145 0 145 0 0 565 0 566-142-3-143-3-5-98-5-98-39 50 c-85 113-165 152-316 157-58 2-119 0-137-5z m323-266 c66-33 107-75 141-143 25-51 28-68 28-157 0-89-3-106-28-156-67-138-200-196-348-153-67 19-139 86-169 156-48 111-35 269 29 360 76 109 231 151 347 93z"/><path d="M7520 1764 c-197-38-339-167-365-331 l-7-43 135 0 135 0 12 36 c28 84 115 139 220 138 66 0 114-23 135-64 51-99-22-171-220-216-242-54-349-112-390-211-23-55-20-202 5-256 64-137 216-206 428-195 161 9 264 57 354 166 38 47 95 183 83 202-4 6-55 10-130 10 l-124 0-19-42 c-10-24-39-62-64-84-39-36-53-43-104-48-78-9-131 8-161 53-32 48-30 92 7 135 34 38 55 46 245 96 205 54 276 91 325 172 58 93 62 194 14 295-31 65-89 117-173 156-61 28-76 30-191 33-69 1-136 0-150-2z"/><path d="M2137 1754 c-4-4-7-322-7-706 l0-698 181 2 182 3 44 115 c24 63 50 131 57 150 20 53 76 191 91 225 7 17 25 62 40 100 14 39 38 96 51 128 14 32 36 88 49 125 34 98 76 185 85 175 10-10 70-152 70-164 0-4 17-50 39-101 49-118 121-304 121-312 0-4 8-26 18-49 10-23 26-60 34-82 9-22 30-74 46-115 17-41 38-97 48-125 10-27 22-56 27-62 7-10 56-13 183-13 l174 0-2 703-3 702-142 3-143 3 0-471 c0-258-3-470-8-470-6 0-21 35-67 165-10 28-35 95-55 150-21 55-40 109-43 120-3 11-17 52-32 90-15 39-34 93-42 120-8 28-19 55-23 60-4 6-22 55-40 110-18 55-37 106-43 113-7 9-42 12-131 10 l-121-3-27-80 c-16-44-39-109-52-145-35-91-98-263-150-410-54-152-94-260-104-280-4-8-9 194-12 450 l-5 465-141 3 c-77 1-143-1-147-4z"/></g><g fill="#501ed0"><path d="M10820 4712 c0-5 18-49 41-98 22-49 51-111 64-139 12-27 50-112 83-188 l60-137-18-38 c-10-20-35-77-56-127-20-49-46-110-57-135-28-63-79-183-112-260-15-36-45-103-66-150-21-47-39-89-39-93 0-4-11-31-26-60-32-67-84-198-84-214 0-10 37-13 153-13 l153 0 17 35 c9 20 17 44 17 53 0 10 4 22 9 27 5 6 26 53 46 105 20 52 47 122 61 155 14 33 29 69 33 80 5 11 22 54 40 95 17 41 39 99 49 129 10 30 23 56 29 58 11 4 31-40 63-137 18-53 54-150 160-430 28-74 54-143 57-152 5-16 21-18 159-18 117 0 154 3 154 13 0 6-12 39-26 72-14 33-38 92-53 130-15 39-37 90-49 115-21 46-54 127-143 350-27 69-56 139-64 155-17 35-83 197-127 310-17 44-35 85-39 91-5 6-24 51-43 100-58 150-106 268-121 294-14 25-15 25-169 28-86 1-156-1-156-6z"/><path d="M715 4175 c-115-30-165-52-241-108-66-49-163-169-194-242-92-216-102-425-28-639 45-133 120-240 224-322 53-42 85-58 195-94 367-121 773 65 875 399 26 85 32 81-129 81 l-143 0-43-66 c-57-86-121-136-213-164-139-42-280-12-383 82-30 27-55 55-55 61 0 6-7 18-16 28-8 9-26 49-40 89-20 60-24 91-24 191 0 101 4 128 24 183 68 179 196 276 366 276 94 0 190-29 247-76 55-44 60-50 109-122 l35-53 142 3 142 3-3 25 c-7 48-55 156-97 215-47 66-121 139-160 157-14 6-25 15-25 19 0 12-126 58-216 79-116 27-234 26-349-5z"/><path d="M3409 4176 c-36-12-86-34-111-49-99-57-184-190-215-332-31-141-16-345 33-451 13-28 24-56 24-62 0-6 3-12 8-14 4-1 20-22 36-46 29-42 93-95 157-128 120-62 321-59 434 6 51 30 112 87 132 123 19 38 26 28 28-41 1-31 3-72 4-89 l1-33 140 0 140 0 1 243 c1 133 1 269 1 302 0 33-1 178-1 323 l-1 262-129 0 c-71 0-136-3-145-6-13-5-16-24-17-103 0-79-2-92-12-77-7 11-32 42-57 69-105 115-290 157-451 103z m345-250 c110-49 167-138 174-274 12-221-107-361-298-350-182 10-284 147-267 362 3 40 12 89 21 110 61 146 228 215 370 152z"/><path d="M4805 4193 c-132-30-228-104-283-218-48-100-52-137-52-540 l0-375 145 0 144 0 3 364 3 364 40 57 c57 82 108 109 206 110 112 0 185-44 234-142 l30-58 3-348 3-348 142 3 142 3 0 560 0 560-120 3 c-174 4-165 10-165-98 0-50-4-90-8-90-5 0-23 20-41 45-65 91-207 156-334 154-40-1-81-3-92-6z"/><path d="M6105 4177 c-96-32-122-47-181-106-60-59-92-110-130-207-25-65-27-79-27-234 0-145 3-173 22-230 36-103 80-177 138-230 98-90 205-125 358-118 81 3 101 8 159 38 66 33 151 108 162 143 18 57 24-8 24-263 l0-280 145 0 145 0-2 748-3 747-140 0-140 0-3-92 c-1-51-7-93-11-93-5 0-15 10-24 23-36 54-97 106-162 137-61 29-82 34-165 37-79 3-106 0-165-20z m332-248 c68-25 135-89 166-159 26-56 30-224 8-280-25-62-88-135-138-161-67-34-207-35-269-2-113 60-170 202-145 363 21 134 65 189 201 248 41 17 115 14 177-9z"/><path d="M8808 4176 c-135-47-218-119-275-238-42-87-50-119-63-228-16-141 6-286 60-397 82-168 229-262 417-265 156-3 268 51 361 175 l21 29 3-94 3-93 148-3 147-3 0 560 0 560-140 3 c-77 2-145 2-150 0-6-2-10-45-10-99 l0-96-42 56 c-53 68-112 108-202 136-92 28-190 27-278-3z m364-260 c60-30 101-74 137-143 17-35 21-60 21-146 0-89-3-110-25-154-58-122-131-168-265-168-101 0-150 22-211 95-67 80-88 227-49 351 26 84 69 135 144 171 82 38 165 36 248-6z"/><path d="M2713 4182 l-122-3-3-342 c-4-371-6-387-64-462-37-49-125-90-194-90-111 0-218 81-251 190-8 26-13 154-16 373 l-5 332-144 0-144 0 0-745 0-745 144 0 145 0 6 43 c4 24 5 145 2 270-2 124-1 230 3 237 4 7 13 2 25-16 39-59 82-96 154-132 74-37 76-37 200-37 121 0 129 1 191 32 71 34 141 98 169 153 10 19 29 64 42 100 23 63 24 75 27 451 l3 386-23 4 c-13 2-78 3-145 1z"/><path d="M7182 4182 c-10-7-12-161-10-748 l3-739 148-3 148-3-2 276 c-1 151 0 277 2 280 3 2 26-23 51-55 37-46 63-67 122-96 64-31 87-37 163-41 221-13 374 81 438 270 25 73 30 198 25 542 l-5 320-135 0-135 0-5-345-5-345-26-60 c-32-72-85-118-166-141-48-14-65-15-112-4-91 20-168 87-201 175-5 14-10 174-10 357-1 196-5 339-11 350-9 16-24 18-137 18-70 0-133-4-140-8z"/><path d="M9880 3620 l0-560 145 0 145 0 0 100 0 100 69-70 c80-82 164-126 257-136 58-6 61-5 67 17 8 30 9 236 1 265-5 20-14 22-103 26-83 4-105 9-151 34-67 36-115 97-129 164-7 30-11 168-11 335 l0 285-145 0-145 0 0-560z"/><path d="M2137 1754 c-4-4-7-322-7-706 l0-698 181 2 182 3 44 115 c24 63 50 131 57 150 20 53 76 191 91 225 7 17 25 62 40 100 14 39 38 96 51 128 14 32 36 88 49 125 34 98 76 185 85 175 10-10 70-152 70-164 0-4 17-50 39-101 49-118 121-304 121-312 0-4 8-26 18-49 10-23 26-60 34-82 9-22 30-74 46-115 17-41 38-97 48-125 10-27 22-56 27-62 7-10 56-13 183-13 l174 0-2 703-3 702-142 3-143 3 0-471 c0-258-3-470-8-470-7 0-26 48-93 239-22 63-45 124-51 135-6 11-15 34-19 51-4 16-19 62-34 100-15 39-33 90-41 115-8 25-21 59-28 75-8 17-27 68-41 115-15 47-32 91-38 98-7 9-42 12-131 10 l-121-3-27-80 c-16-44-39-109-52-145-35-91-98-263-150-410-54-152-94-260-104-280-4-8-9 194-12 450 l-5 465-141 3 c-77 1-143-1-147-4z"/><path d="M8270 1010 l0-750 145 0 145 0 0 280 c0 154 3 280 8 280 4 0 18-16 31-35 36-53 88-94 161-129 61-29 72-31 185-31 114 0 123 2 185 31 105 50 175 129 214 243 18 51 20 92 23 459 l4 403-143-3-143-3-5-360-5-361-34-56 c-50-82-109-113-216-113-120 0-187 44-239 155-20 42-21 67-26 390 l-5 345-142 3-143 3 0-751z"/><path d="M6693 449 c-59-29-77-61-77-134 0-73 19-106 78-135 57-27 129-26 186 3 76 39 101 126 60 206-38 75-158 104-247 60z"/></g><g fill="#b4127e"><path d="M4805 4193 c-38-8-110-36-120-46-7-7-4-8 8-4 11 4 16 3 12-4-4-6-14-8-22-4-35 13-118-70-161-160-48-100-52-137-52-540 l0-375 145 0 144 0 3 364 3 364 40 57 c57 82 108 109 206 110 112 0 185-44 234-142 l30-58 3-348 3-348 142 3 142 3 0 560 0 560-130 0 c-71 0-136-2-142-4-9-2-13-29-13-92 0-49-4-89-8-89-5 0-23 20-41 45-49 68-152 132-195 120-17-5-18-4-6 5 12 9 8 10-20 6-21-4-30-3-22 3 19 12-8 21-56 20-37-1-37-1-7-8 26-6 27-8 10-13-38-13-88-13-92-1-2 6 6 13 19 16 18 3 16 4-7 4-16 1-39-1-50-4z m25-22 c0-5-10-7-22-5-21 4-21 3 2-7 l25-11-30-9 c-51-15-77 8-32 29 28 13 57 15 57 3z"/><path d="M6105 4177 c-96-32-122-47-181-106-60-59-92-110-130-207-25-65-27-79-27-234 0-145 3-173 22-230 36-103 80-177 138-230 98-90 205-125 358-118 81 3 101 8 159 38 66 33 151 108 162 143 18 57 24-8 24-263 l0-280 145 0 145 0-1 748 c0 411-3 742-5 737-3-7-30-8-77-4-39 4-85 4-101 1-22-4-27-2-21 8 6 10 3 11-16 5-13-4-34-7-46-7-22 0-23-3-23-89 0-49-4-89-9-89-5 0-15 10-24 23-36 54-97 106-162 137-61 29-82 34-165 37-79 3-106 0-165-20z m332-248 c68-25 135-89 166-159 26-56 30-224 8-280-25-62-88-135-138-161-67-34-207-35-269-2-113 60-170 202-145 363 21 134 65 189 201 248 41 17 115 14 177-9z"/><path d="M3929 4083 c0-80-2-94-12-79-7 11-29 38-50 60 l-38 41 40-55 c45-61 51-76 22-60-22 11-82 12-121 1-23-7-24-8-6-18 28-16 10-35-27-28-25 4-21 0 20-19 108-51 164-140 171-274 12-221-107-361-298-350-182 10-284 147-267 362 3 40 12 89 21 110 24 56 73 114 118 137 22 11 38 23 35 25-8 8-58-21-89-50-28-27-48-33-48-16 0 6-11 10-25 10-18 0-25-5-25-19 0-14-10-21-37-27-21-4-40-8-43-9-3-1-17-5-32-9-16-5-28-12-28-16 0-5-15-12-32-16-18-3-38-14-45-23-11-14-14-14-23-1-6 10-10 11-10 3 0-7-6-13-14-13-28 0-28-177 0-320 4-19 17-58 30-86 13-28 24-56 24-62 0-6 3-12 8-14 4-1 20-22 36-46 29-42 93-95 157-128 120-62 321-59 434 6 51 30 112 87 132 123 19 38 26 28 28-41 1-31 3-72 4-89 l1-33 140 0 140 0 1 243 c1 391-2 751-7 759-7 12-82 10-89-2-3-5-21-10-39-10-19 0-39-7-46-15-10-12-16-13-27-4-11 9-19 7-38-11 l-25-23 0 91 c0 55-4 92-10 92-6 0-10-40-11-97z"/><path d="M7176 4170 c-3-8-5-343-4-745 l3-730 148-3 148-3-2 276 c-1 151 0 277 2 280 3 2 26-23 51-55 37-46 63-67 122-96 64-31 87-37 163-41 252-15 414 110 458 352 8 46 7 487-1 521-4 15-11 20-25 17-14-4-19 0-19 15 0 25-19 39-29 23-6-9-20-6-54 8-25 11-56 18-67 16-12-2-32 0-45 5-34 13-34 10-38-275-3-233-3-242-29-300-31-72-84-117-165-141-106-31-219 16-284 118 l-34 53-7 319 c-3 175-11 323-16 328-4 4-23 10-40 12-17 3-35 7-39 9-4 3-30 8-58 12-27 3-53 11-56 17-4 6-20 8-37 5-20-4-32-2-35 6-3 8-7 7-11-3z"/><path d="M9620 3747 c0-195-3-356-6-359-12-13-70 13-96 43-16 18-39 32-57 34-39 5-81 33-81 54-1 14-3 13-15-3-8-10-21-16-29-13-11 4-21-6-34-36-27-60-77-114-131-140-69-33-199-32-260 3-65 37-117 104-135 175-18 65-20 159-7 218 5 21 5 37 0 37-5 0-9-6-9-12-1-7-7 1-15 19-14 33-36 49-78 57-14 2-34 9-45 15-11 6-34 12-52 13-34 3-53 25-45 55 3 10-4-2-16-27-13-27-28-88-36-153-29-220 28-428 149-548 85-83 198-129 325-131 156-3 268 51 361 175 l21 29 3-94 3-93 148-3 147-3 0 521 c0 286-2 520-5 520-3 0-5-159-5-353z"/><path d="M3628 3953 c12-2 30-2 40 0 9 3-1 5-23 4-22 0-30-2-17-4z"/><path d="M2872 3864 c-1-39-5-105-8-146-6-70-8-74-28-71-13 3-28-2-35-11-8-9-21-16-31-16-9 0-22-11-28-25-6-14-20-25-30-25-10 0-35-9-57-20-49-25-55-25-55 2 0 35-9 16-20-42-23-119-80-185-189-216-70-21-139-7-214 43-51 34-51 34-24 5 26-27 27-31 13-45-20-20-20-41-1-57 23-19 18-33-7-25-13 3-29 7-36 7-7 1-20 14-30 30-28 47-36 36-45-65-4-46-36-97-59-97-11 0-38-25-38-35 0-4-14-27-31-51-24-35-34-43-44-34-10 9-14 2-20-32-3-24-9-52-12-63-5-18-7-18-16 5 l-10 25-5-25 c-2-14-9-31-15-39-10-12-13-6-18 30-4 25-6-2-5-66 l1-110 142-3 142-3 6 44 c4 24 5 145 2 270-2 124-1 231 3 237 5 8 14 2 26-19 20-34 29-38 38-18 3 6 3 2 1-9-7-28 38-67 125-108 62-30 71-31 190-31 120 0 128 2 190 32 71 34 141 98 169 153 10 19 29 64 41 100 21 59 24 86 28 295 2 127 2 246 0 265-3 20-5 4-6-36z m-645-570 c19-5 21-10 12-25-15-29-49-25-49 6 0 27 3 28 37 19z"/><path d="M8810 3847 c-8-7-21-25-28-40-24-56-11-48 27 16 24 40 24 43 1 24z"/><path d="M3080 3786 c0-31 6-34 13-6 3 11 1 23-4 26-5 3-9-6-9-20z"/><path d="M9882 3268 l-2-208 138 2 137 2-125 3 c-68 2-129 8-135 14-7 7-5 8 5 5 10-4 19 3 27 20 12 27 9 49-7 39-21-13-30 31-33 176-2 144-3 140-5-53z"/><path d="M4253 1761 c-55-14-168-77-210-117-57-55-118-161-139-247-14-53-19-107-18-207 0-176 16-235 101-384 21-36 115-115 168-139 127-61 288-63 412-6 44 20 134 101 166 149 15 24 16 21 16-77 l1-103 145 0 145 0 0 565 0 566-142-3-143-3-5-98-5-98-39 50 c-85 113-165 152-316 157-58 2-119 0-137-5z m323-266 c66-33 107-75 141-143 25-51 28-68 28-157 0-89-3-106-28-156-67-138-200-196-348-153-67 19-139 86-169 156-48 111-35 269 29 360 76 109 231 151 347 93z"/><path d="M7505 1760 c-190-41-324-167-350-327 l-7-43 135 0 135 0 12 36 c28 84 115 139 220 138 66 0 114-23 135-64 51-99-22-171-220-216-249-56-363-120-393-222-20-65-15-195 8-245 64-137 216-206 428-195 161 9 264 57 354 166 38 47 95 183 83 202-4 6-55 10-130 10 l-124 0-19-42 c-10-24-39-62-64-85-38-34-55-42-101-48-147-19-240 94-157 189 34 38 55 46 245 96 205 54 276 91 325 172 58 93 62 194 14 295-31 65-89 117-173 156-60 27-77 30-191 33-69 2-143-1-165-6z"/><path d="M2137 1754 c-11-11-8-304 4-412 10-90 21-118 41-106 4 3 8 16 8 29 0 40 19 38 26-2 9-50 13-56 30-42 11 9 14 8 14-5 0-15 43-50 64-51 6 0 28-9 49-20 l37-19 0-65 c1-108 12-255 20-264 4-5 10 1 13 12 3 12 1 21-4 21-5 0-10 198-11 463 l-3 462-141 3 c-77 1-143-1-147-4z"/><path d="M2775 1750 c-4-6-22-54-40-108-19-53-47-133-64-177-45-122-120-333-143-400-11-33-24-68-29-77-6-11-6-18 0-18 5 0 12 11 15 24 5 20 11 24 31 20 17-3 27 1 32 12 6 15 7 15 20-2 13-17 14-17 28 2 12 15 14 16 15 3 0-9-3-19-7-22-10-11-13-56-3-62 5-3 17 6 28 19 15 20 22 22 32 13 10-9 14-9 17 1 3 6 9 12 14 12 6 0 5-8-1-20-6-11-7-20-3-20 5 0 14 15 21 33 8 17 25 58 39 90 13 32 35 88 48 125 34 98 76 185 85 175 10-10 70-152 70-164 0-4 17-50 39-101 45-110 116-292 126-328 4-14 11-29 15-35 4-5 13-27 19-47 14-42 29-58 31-31 0 10 1 27 2 38 1 11-2 30-6 43-9 28 9 30 24 2 6-11 17-20 25-20 8 0 15-9 15-19 0-26 24-33 57-16 26 14 29 13 51-11 13-13 37-27 53-31 16-3 32-10 35-14 3-5 12-9 21-9 9 0 24-7 33-15 14-13 19-13 35-1 16 12 21 11 36-8 15-18 21-19 39-8 27 17 29 11 33-118 1-58 3 206 2 585 l0 690-142 3-143 3 0-471 c0-258-3-470-8-470-7 0-26 48-93 239-22 63-45 124-51 135-6 11-15 34-19 51-4 16-19 62-34 100-15 39-33 90-41 115-8 25-21 59-28 75-8 17-27 68-41 115-15 47-32 91-38 98-12 15-243 17-252 2z"/><path d="M5295 1748 c-3-7-4-260-3-563 l3-550 145 0 145 0 3 93 c1 50 7 92 12 92 6 0 10-7 10-15 0-26 98-114 155-140 77-36 148-48 240-43 147 10 258 76 325 194 56 100 60 134 60 558 l0 387-142-3-143-3-5-360 c-6-398-6-400-72-466-99-99-291-88-378 22-55 70-61 115-63 484 l-2 320-143 3 c-108 2-144 0-147-10z"/><path d="M6649 1733 c-2-16-3-270-1-565 l2-538 139 0 c124 0 139 2 143 18 2 9 2 263 0 565 l-4 547-138 0-138 0-3-27z"/><path d="M8272 1118 c1-354 3-615 5-580 l4 63 33-7 c20-3 36-1 40 5 4 6 18 11 32 11 13 0 32 4 42 9 9 6 33 12 52 15 27 5 38 13 50 38 14 31 15 19 20-177 l6-210 2 268 c1 147 5 267 10 267 4 0 18-16 31-35 32-47 82-90 134-115 l42-21-25 21 c-14 11-29 24-35 28-5 4-18 11-28 15-27 10-9 30 20 22 14-3 45-3 70 1 37 5 44 10 40 25-5 20 8 26 68 33 17 2 33 4 38 5 4 0 17 11 28 22 12 12 36 25 53 29 17 4 38 10 46 12 8 3 12 3 7 1-4-3-4-9-1-14 3-6 12-2 19 8 7 10 17 18 22 19 28 3 62 18 57 25-3 5 2 9 10 9 8 0 21 6 28 13 32 31 65 47 98 47 20 0 41 5 48 12 15 15 16-3 2-51-6-22-6-31 0-25 23 23 30 137 30 486 l0 369-142-3-143-3-5-360-5-361-34-56 c-55-90-163-137-264-114-98 23-149 65-191 156-20 42-21 67-26 390 l-5 345-142 3-143 3 2-643z"/><path d="M2690 901 c0-5-3-18-6-28-5-16-4-16 10 1 18 23 20 36 6 36-5 0-10-4-10-9z"/><path d="M9305 830 c-9-16-13-30-11-30 3 0 12 14 21 30 9 17 13 30 11 30-3 0-12-13-21-30z"/><path d="M9240 745 c-24-25-41-45-37-45 7 0 53 44 76 73 25 31 6 18-39-28z"/><path d="M6693 449 c-49-24-70-53-79-107-6-41 9-107 28-118 6-4 5 3-2 15-9 17-9 26 2 38 7 9 13 23 13 32 0 21 36 27 47 7 12-21 32-20 53 1 11 10 36 17 69 18 28 1 70 6 93 9 l43 8-16 29 c-8 16-19 27-24 24-6-3-7 0-4 8 8 22-72 57-132 57-29 0-66-8-91-21z"/><path d="M6930 240 c0-5-12-21-27-36-22-20-23-24-7-15 24 12 60 61 44 61-5 0-10-4-10-10z"/></g><g fill="#9212a0"><path d="M4810 4189 c-13-7-12-9 3-9 9 0 17-4 17-9 0-5-10-7-22-5-21 4-21 3 2-7 l25-12-34-9 c-28-8-36-6-53 11-20 23-34 28-22 9 5-8 2-9-10-5-10 4-15 3-11-3 3-5-8-16-26-25-17-9-28-12-25-6 4 6 4 11-1 11-12-1-43-26-43-35 0-4 7-2 15 5 31 26 14-9-24-48-21-22-42-50-46-62-4-13-12-19-21-16-9 3-12 1-9-4 9-14-4-52-15-45-5 3-11 1-15-5-3-5-1-10 4-10 6 0 11-7 11-16 0-8-4-13-9-9-5 3-13 0-17-6-4-7-3-9 4-5 5 3 12 2 14-3 1-5 23 4 47 20 23 17 50 29 60 27 9-1 44 4 78 11 75 16 110 10 115-22 3-18 7-14 27 26 21 40 29 47 53 47 20 0 27-4 22-12-5-8-2-9 11-4 23 8 181 9 195 1 5-3 7 0 4 8-10 28 51 29 105 2 27-14 52-25 55-25 13 0 5 48-9 54-18 6-19 1-5-25 21-38 1-18-28 30-17 27-47 61-67 76-27 22-33 30-23 38 10 6 9 7-4 4-9-3-35 3-57 14-22 10-46 19-53 19-9 0-9 3 2 10 11 7 5 8-19 3-23-4-32-3-27 5 3 6 1 14-5 18-6 3-14 1-18-5-4-6-31-15-60-20-44-7-54-6-64 10-9 12-17 15-27 8z"/><path d="M6162 4193 c-6-2-10-8-7-13 7-11-42-22-68-15-17 5-19 4-7-4 8-6 10-11 4-11-6 0-27-11-47-24-19-13-46-27-58-31-22-5-22-4 4 12 31 20 37 39 8 23-23-12-35-29-36-49 0-8-6-16-14-19-8-3-11 0-7 7 4 6 2 11-3 11-6 0-10-10-8-21 1-12-4-24-12-27-8-3-11 0-7 7 4 6 3 11-2 11-6 0-13-7-16-16-3-8-2-13 3-9 5 3 16-2 24-10 20-20 43-19 51 1 4 11 12 14 24 9 24-10 195-6 206 5 5 5 28 2 55-6 54-16 121-18 121-4 0 19 38 10 43-10 3-12 14-20 27-20 13 0 24 8 27 20 5 20 35 26 67 14 24-9 19-21-11-29 l-28-7 23-11 c18-8 25-7 36 8 13 18 14 18 41-3 15-12 31-19 36-16 5 3 8 38 7 77-2 71-2 71-5 14-3-48-7-58-20-53-11 5-14 2-9-11 4-11-1-8-14 7-10 14-18 32-17 40 1 8-4 14-11 12-7-1-25 9-40 24-42 40-95 71-148 88-27 8-42 15-34 15 13 1 13 2 0 11-20 13-33 13-25 0 4-6-20-10-65-10-45 0-69 4-65 10 7 11-2 12-23 3z"/><path d="M3930 4085 c0-62-4-94-10-90-5 3-10 1-10-5 0-7-6-8-19 0-22 11-84 12-121 0-22-6-23-8-7-15 10-4 16-14 13-22-3-8 2-17 12-20 32-12 87-62 111-102 14-22 27-38 30-36 4 1 7-16 8-39 2-29 0-37-7-26-8 13-10 12-10-2 0-10 7-18 15-18 8 0 15 9 15 19 0 20 34 51 57 51 6 0 24 5 40 11 15 6 29 10 30 10 2 0 20 6 41 13 25 9 44 11 55 4 9-5 18-5 18-1 1 4 5-5 9-22 5-18 8 30 9 123 l1 152-39 0 c-22 0-43-4-46-10-3-5-21-10-39-10-19 0-39-7-46-15-10-12-16-13-27-4-11 9-19 7-38-11 l-25-23 0 86 c0 47-4 89-10 92-6 4-10-28-10-90z"/><path d="M5300 4081 c0-49-3-98-6-108-6-16-5-16 7-2 16 18 97 39 154 39 71 0 79-1 87-13 5-7 7 29 6 78 l-3 90-122 3-123 3 0-90z"/><path d="M6657 4163 c-3-5-5-43-6-87-1-68 1-77 14-66 12 10 15 7 21-14 7-29 19-34 28-10 3 8 10 13 15 10 5-3 31-6 57-7 27-1 63-7 81-15 l32-12 3 96 c2 53 2 100 0 105-2 4-57 7-122 7-65 0-121-3-123-7z"/><path d="M7204 4162 c-8-4-12-49-13-124 l-2-117 33 9 c18 6 34 6 37 1 4-5 35-10 71-13 71-4 104-25 113-70 2-13 5 43 6 125 1 133-1 147-16 149-27 2-36 4-58 11-11 3-40 9-65 12-25 4-46 11-48 16-4 11-42 12-58 1z"/><path d="M9618 3743 c-2-197-1-432 2-523 3-93 7 63 8 358 1 287 0 522-3 522-2 0-6-161-7-357z"/><path d="M7998 4010 c-2-5-2-68 0-139 3-129 3-130 25-122 26 10 127-15 143-36 7-7 26-15 43-16 32-2 33-3 44-62 2-11 4 55 4 146-1 156-2 166-19 161-13-3-18 1-18 16 0 25-19 39-29 23-6-9-20-6-54 8-25 11-56 18-67 16-12-2-32 0-45 5-14 5-25 5-27 0z"/><path d="M5848 3980 c-9-17-13-30-8-30 5 0 12 9 15 20 4 11 10 18 14 16 4-3 8 1 8 9 0 23-10 18-29-15z"/><path d="M4863 3950 c-20-8-28-22-20-34 5-9-36-45-46-39-6 3-7 1-3-5 4-6 0-24-9-39-16-27-16-27 7 2 13 16 35 42 51 58 28 30 35 43 15 31-7-5-8-3-4 5 5 7 14 10 20 8 7-3 13 1 13 9 0 8-1 14-1 13-1 0-11-4-23-9z"/><path d="M2868 3703 c-1-146-4-197-7-143-5 76-8 85-27 88-11 2-27-4-34-13-7-8-20-15-30-15-9 0-22-11-28-25-6-14-19-25-28-25-27 0-114-44-114-57 0-7-4-13-9-13-5 0-12-7-15-16-3-8-2-12 4-9 6 3 10 1 10-5 0-6-7-13-15-16-8-4-15-10-15-16 0-5 4-7 10-3 5 3 3-11-4-32-7-20-18-39-25-41-10-3-10 0-1 18 7 13-3 7-28-17-39-38-49-62-12-28 11 10 20 13 20 8 0-6-16-21-37-33-29-17-38-18-44-8-8 12-13 4-10-16 1-4-10-5-24-2-14 4-25 2-25-4 0-5-22-10-50-10-27 0-50 5-50 10 0 16-19 11-37-10-27-31-53-26-53 10 0 34-5 37-26 16-18-19-18-35 3-58 21-23 10-34-21-20-19 8-26 8-29-1-2-7-12 5-22 26-20 40-30 46-39 21-8-21 4-41 14-24 5 8 13 2 26-19 10-17 22-31 27-31 4 0 5 5 2 10-13 21 4 8 47-35 25-24 42-47 39-50-3-3 3-3 13 1 13 5 17 4 12-4-3-6-1-14 5-18 8-4 9-3 5 4-10 16 9 15 44-3 55-28 161-38 240-21 66 13 100 26 72 26-28 0-8 27 33 45 36 17 43 24 39 42-4 15 0 23 15 28 12 4 30 15 40 26 16 17 20 18 30 5 15-17 7-36-15-36-8 0-14-7-14-16 0-14 3-14 15-4 8 7 15 8 15 2 0-13-25-33-33-27-4 3-5 2-2-2 3-3-1-13-8-21-10-13-9-14 9-2 11 7 29 26 40 41 10 16 22 29 27 29 4 0 7 5 7 11 0 5-4 7-10 4-14-9-12 1 5 35 18 35 29 39 20 8-5-18-4-20 4-8 6 8 8 24 5 35-2 11 2 40 10 65 8 25 15 36 15 25 1-17 3-17 11-5 13 20 13 43 0 35-6-4-10 6-10 24 0 23 4 29 15 25 13-5 15 24 15 230 0 130-2 236-5 236-3 0-6-102-7-227z m-238-513 c0-5-7-10-15-10-8 0-15 5-15 10 0 6 7 10 15 10 8 0 15-4 15-10z"/><path d="M8517 3871 c4-16 3-22-5-17-6 3-14 1-18-5-4-8-3-9 4-5 7 4 12 3 12-3 0-5-8-15-17-20-15-9-16-12-4-20 11-7 11-13-3-32-9-13-16-30-16-39 0-13 1-13 10 0 7 11 10 7 10-17 0-39-9-65-21-57-10 6-12-49-3-83 8-30 34-18 34 16 1 24 2 25 14 8 8-11 20-15 30-11 11 4 29-2 46-15 16-11 36-21 44-21 7 0 16-6 19-14 4-9 16-13 34-11 33 4 53-10 53-36 0-16 3-17 19-7 11 7 17 16 15 20-3 5-10 6-15 3-5-4-9 3-9 14 0 12 5 21 11 21 5 0 7 5 4 10-4 6-11 8-16 5-5-4-9 26-9 72 0 55 3 74 10 63 10-14 8 10-6 77-5 26-37 50-76 57-14 2-35 9-45 14-10 6-33 12-51 14-17 2-38 13-46 23-14 19-15 19-9-4z"/><path d="M3350 3861 c0-14-10-21-37-27-21-4-40-8-43-9-3-1-17-5-32-9-16-5-28-12-28-16 0-5-15-12-32-16-18-3-38-14-45-23-11-13-14-14-22-2-7 11-10 9-16-8-3-12-11-19-16-16-8 6-7-24 6-160 2-22 9-71 17-110 13-68 13-69 18-30 4 33 9 41 28 43 13 2 49 17 80 33 31 16 62 29 68 29 7 0 14 3 17 8 2 4 3 2 1-5-1-6 6-19 16-28 18-17 19-15 13 71-3 50-1 105 5 124 9 30 10 32 12 10 1-17 6-10 15 25 12 44 11 52-2 68-18 19-4 24 16 5 10-11 12-10 9 2-2 8 3 15 10 16 6 1 14 2 17 3 3 0-4 10-15 21-26 26-60 26-60 1z"/><path d="M9365 3517 c-5-12-15-17-26-14-11 3-22 1-25-4-3-5 0-9 6-9 6 0 8-5 4-12-5-7-9-21-9-31-1-10-10-26-20-35-17-16-17-16-12 1 4 11 3 16-4 12-5-4-7-14-4-24 6-20-33-60-82-85-37-18-47-20-38-6 3 6 1 10-4 10-6 0-11-7-11-15 0-18-17-20-22-3-3 9-6 9-12 0-4-7 0-15 11-19 10-3 24-11 32-17 8-6 30-16 49-21 39-11 55-35 23-35-24 0-39-19-17-21 43-4 51-2 48 10-1 7 2 10 7 7 5-3 21 14 35 39 30 50 45 61 21 15-9-16-13-30-10-30 9 0 31 23 38 40 3 8 6-12 7-45 2-33 3-78 4-100 l1-40 125 0 125 0 0 149 0 150-29 7 c-16 5-44 24-63 44-18 20-38 33-43 30-16-10-81 26-90 49-7 20-8 20-15 3z m53-396 c14 5 27 7 30 4 3-3 0-5-6-5-7 0-12-7-12-15 0-11-9-14-32-11-26 2-34 8-36 27-3 23-3 23 14 7 13-13 23-14 42-7z"/><path d="M8784 3445 c9-14 14-31 10-37-4-6-3-8 3-5 6 4 18-4 27-18 9-13 26-30 38-36 14-7 4 8-25 42-26 29-47 59-47 66 0 7-5 13-11 13-7 0-5-10 5-25z"/><path d="M9883 3265 c0-115 1-202 4-193 2 9 10 15 16 12 7-2 17 8 24 22 12 27 9 49-7 39-21-13-30 31-33 176-2 129-3 120-4-56z"/><path d="M2052 3183 c4-22-45-93-64-93-11 0-38-25-38-35 0-4-14-27-31-51-24-35-34-43-44-34-10 9-14 2-20-32-3-24-9-52-12-63-5-18-7-18-16 5-9 23-10 23-14 5-2-11-9-29-14-40-6-12-9-48-7-80 l3-60 112-3 c167-4 163-9 163 180 0 97-4 147-10 143-5-3-10 1-10 9 0 9 5 16 10 16 6 0 10 7 10 15 0 8-4 15-10 15-5 0-10 14-10 30 0 17 5 30 10 30 6 0 10 11 10 25 0 14-4 25-10 25-5 0-9-3-8-7z"/><path d="M3380 1635 c0-139-8-120 77-194 31-27 98-62 125-65 4-1 13-7 20-13 29-30 42-14 51 62 2 17 4-150 4-370-1-220-3-350-6-290-4 61-9 109-13 108-26-8-71 12-79 36-6 14-13 21-17 16-4-6-25-10-47-10-34 0-40 3-43 23-2 14-10 22-23 22-10 0-19 6-19 13 0 7-5 5-11-5-5-10-8-34-5-55 6-51-3-93-20-93-16 0-18-11-4-28 5-7 3-6-6 2-9 7-34 65-57 127-34 92-45 114-59 111-10-2-18-8-18-13 0-5-6-9-14-9-15 0-26 21-26 51 0 25-16 24-23-1-3-11-12-20-20-20-16 0-67 54-67 71 0 5-6 9-13 9-7 0-21 14-31 30-9 17-21 28-26 25-4-3-13 7-18 22-6 16-11 23-11 17-1-7 6-27 14-45 10-25 15-29 15-14 1 15 5 11 16-14 13-28 13-36 2-43-9-7-8-8 6-4 15 5 17 2 13-14-3-13-1-18 6-13 6 4 8-2 5-15-4-14-2-20 4-16 6 4 8-2 3-17-4-16-3-20 3-10 7 9 14 0 27-35 29-84 34-105 24-99-5 4-9 1-9-4 0-6 7-11 15-11 8 0 15-5 15-11 0-5-6-7-12-4-7 4-5 0 6-9 10-8 15-20 10-27-4-7-3-10 3-6 6 4 13-4 15-18 3-14 1-25-5-25-6 0-7-3-3-7 4-5 13-8 19-8 6 0 15-16 20-35 7-28 10-31 18-18 6 10 5 27-1 44-14 35-2 46 17 17 9-13 22-23 29-23 8 0 14-9 14-19 0-26 24-33 57-16 26 14 29 13 51-11 13-13 37-27 53-31 16-3 32-10 35-14 3-5 12-9 21-9 9 0 24-7 33-15 14-13 19-13 35-1 16 12 21 11 36-8 15-18 21-19 39-8 27 17 29 11 33-118 1-58 3 206 2 585 l0 690-142 3-143 3 0-126z"/><path d="M2418 1739 c-3-9-9-41-13-72-7-53-26-80-41-56-3 6-17 15-31 20-30 11-27 18 10 21 47 4 29 17-33 24-33 4-60 9-60 13 1 20 23 33 66 41 40 6 30 8-55 7 l-104-2-4-244 c-3-186-1-246 9-252 17-11 28-1 28 26 0 40 19 38 26-2 9-50 13-56 30-42 11 9 14 8 14-5 0-15 43-50 64-51 6 0 28-9 49-20 34-17 37-22 38-64 3-218 16-330 32-272 3 12 1 21-4 21-5 0-10 198-11 463-2 254-6 455-10 446z"/><path d="M9342 1412 c-4-45-52-111-52-72 0 22-19 8-29-22-11-30-12-30-30-14-18 17-19 16-31-19-11-33-13-35-26-18-13 17-13 17-14-3 0-30-32-58-48-42-9 9-12-5-12-62 0-54-3-71-10-60-8 11-9 8-5-11 7-30-10-105-27-115-7-5-8-2-3 7 8 12 6 12-9 0-11-9-13-17-6-21 7-5 6-11-5-20-8-7-15-9-15-4 0 5-4 4-8-2-4-6-23-21-42-33-19-11-29-21-21-21 8 0 24 8 35 18 20 16 20 16 7-1-17-21-36-32-74-41-21-5-27-4-21 5 5 9 2 10-10 6-10-4-20-7-22-7-3 0-2-4 1-10 4-6-14-10-47-10-33 0-48 4-40 9 11 7 11 9-2 14-9 4-16 2-16-3 0-6-5-10-12-10-20 0-98 41-98 51 0 6 10 3 22-5 12-9 27-16 33-16 5 0-4 9-21 19-17 10-43 34-58 52-16 19-25 27-21 19 5-8 17-25 28-38 11-12 16-22 9-22-6 0-20 12-31 26-12 16-21 21-21 13 0-11-13-14-47-13-47 1-98-17-118-42-15-18-107-35-122-22-10 8-13-18-13-131 l0-141 26-6 c14-4 30-2 37 5 6 6 21 11 34 11 13 0 31 4 41 9 9 6 33 12 52 15 27 5 38 13 50 38 14 31 15 19 20-177 l6-210 2 268 c2 250 3 267 20 267 19 0 42-18 42-33 0-4-5-5-11-1-8 5-8 1 0-14 6-12 17-24 24-28 9-5 9-4 0 7-21 22-15 34 7 14 12-10 18-25 16-32-6-14 70-70 80-60 3 3-4 8-15 12-12 3-18 11-15 17 4 6 3 8-3 5-6-4-18 0-28 7-18 13-18 14 3 20 12 4 27 4 32 1 6-4 34-4 61 0 43 6 50 10 46 26-5 20 8 26 68 33 17 2 33 4 38 5 4 0 17 11 28 22 12 12 36 25 53 29 17 4 38 10 46 12 8 3 12 3 7 1-4-3-4-9-1-14 3-6 12-2 19 8 7 10 17 18 22 19 28 3 62 18 57 25-3 5 2 9 10 9 8 0 21 6 28 13 32 31 65 47 99 47 20 0 42 6 48 14 8 9 11 79 8 232-1 121-3 209-5 196z"/><path d="M2636 1312 c-10-28-22-51-28-49-6 1-13-4-16-12-3-8 0-11 7-7 6 4 11 2 11-3 0-6-4-11-10-11-5 0-7-7-4-15 4-8-3-36-15-61-12-25-24-59-28-75-3-16-11-29-19-29-14 0-30-38-20-47 3-4 6 2 6 13 0 10 4 15 8 9 12-17 42-17 49 1 6 15 7 15 20-2 13-17 14-17 28 2 12 15 14 16 15 3 0-9-3-19-7-22-10-11-13-56-3-62 5-3 17 6 28 19 15 19 22 22 31 13 9-9 14-9 20 1 4 7 14 12 22 10 10-2 13 6 11 30-1 18 7 51 18 73 25 48 82 200 77 205-2 2-14-6-27-18-21-20-24-20-35-5-14 19-25 12-25-15 0-10-4-18-10-18-5 0-10 18-10 40 0 33-3 40-20 40-11 0-23-1-26-2-3-2-11 8-18 21-13 24-14 23-30-27z"/><path d="M3990 803 c0-5 14-22 30-38 17-16 30-24 30-18 0 6-7 16-15 23-8 7-12 17-8 24 3 6 3 8-2 4-4-4-14-3-22 3-7 6-13 7-13 2z"/><path d="M7960 795 c-7-8-17-12-24-8-6 3-8 3-4-2 4-4 3-14-4-22-6-7-9-15-7-17 2-1 17 12 32 31 16 18 27 33 24 33-2 0-10-7-17-15z"/><path d="M4071 761 c-11-7-9-11 9-21 13-7 20-8 16-2-4 6 2 15 11 21 17 10 17 10-2 11-11 0-26-4-34-9z"/><path d="M7840 748 c0-4-6-8-14-8-20 0-40-27-24-32 27-10-79-17-116-9-53 13-103 3-109-20-4-16-15-19-67-19-38 0-59-4-55-10 3-6 47-10 98-10 86 1 131 6 201 25 23 6 28 5 22-6-4-8 0-5 8 5 9 11 16 15 16 8 0-16 28-4 71 29 45 35 46 54 2 55-18 0-33-3-33-8z m60-13 c0-6-77-55-87-55-9 0 70 59 80 60 4 0 7-2 7-5z"/><path d="M4158 727 c-7-8-21-12-32-9-13 3-17 1-12-6 10-16-6-15-24 1-12 10-12 9 0-6 7-10 19-16 27-13 16 7 64-14 58-25-3-4 0-11 6-15 8-5 9-3 4 6-6 10-3 11 16 6 45-14 174-31 212-28 l38 3-24 19 c-19 15-34 18-79 13-54-5-118 11-118 29 0 5-5 8-11 8-5 0-7-5-3-12 4-7 3-8-5-4-6 4-9 11-6 16 3 5-3 14-14 20-15 8-23 7-33-3z"/><path d="M7290 692 c0-5 17-16 38-24 31-12 39-12 39-2 0 7-4 11-8 8-5-3-22 2-39 11-16 8-30 12-30 7z"/><path d="M6713 436 c-13-7-31-20-41-29-24-22-33-21-26 1 5 14 4 14-6-2-7-10-13-49-14-86-1-62 0-66 14-46 8 11 15 28 15 36 0 21 36 25 47 6 12-22 30-20 59 5 14 12 31 18 44 15 12-3 46-1 76 5 30 5 59 10 66 11 7 1 10 5 7 10-3 5-9 6-13 3-5-2-13 7-19 20-24 53-150 84-209 51z"/></g><g fill="#d3275a"><path d="M4626 4115 c-11-8-18-17-15-19 2-3 15 4 29 14 14 11 21 20 15 19-5 0-19-6-29-14z"/><path d="M5561 3675 c-2-38-5-63-8-54-5 21-58 32-83 19-10-6-34-10-52-10-66 0-111-12-116-32-2-10-8-18-13-18-5 0-9-116-9-260 l0-260 140 0 c104 0 142 3 145 13 3 6 4 161 2 342-1 182-4 299-6 260z"/><path d="M6624 3630 c1-119-8-150-65-226-57-75-111-99-224-99-106 0-151 19-209 86-49 57-70 126-71 227 0 83-14 118-16 40 0-24-3-36-6-28-14 34-36 40-142 38 l-104-3-14-32 c-10-25-11-52-4-121 20-192 119-347 266-416 77-37 145-49 250-44 81 3 101 8 159 38 66 33 151 108 162 143 18 57 24-8 24-263 l0-280 145 0 145 0-2 493 c-1 270-4 465-8 432-4-33-7-52-8-43-3 25-31 37-96 39-31 1-64 8-73 14-13 9-22 9-42-1-41-22-51-17-52 24-2 91-15 76-15-18z"/><path d="M7174 3200 l1-505 148-3 148-3-2 276 c-1 151 0 277 2 280 3 2 26-23 51-55 38-46 63-67 122-96 66-32 87-37 168-42 149-7 258 29 339 115 40 42 96 133 82 133-5 0-17-16-26-35-16-33-45-51-33-20 3 8 2 14-2 13-4-1-29 8-56 20-26 12-67 27-90 34-22 6-49 18-58 26-10 8-24 12-33 9-10-5-7 5 10 33 27 43 29 50 16 50-5 0-14-13-19-29-14-39-82-88-151-107-103-30-217 16-280 114-17 27-31 55-32 63 0 8-4 6-10-6-6-14-8-4-5 35 3 33 2 43-2 25-7-28-9-29-52-26-25 1-52 9-60 16-26 24-66 35-79 22-8-8-18-7-40 6-15 9-31 14-34 11-8-9-16 30-20 96-2 30-3-172-3-450z"/><path d="M4650 3534 c-14-7-34-14-46-14-11 0-24-3-28-7-4-5-24-13-44-18-31-9-38-16-41-40-3-26-4-28-11-10-5 11-9-68-9-182 l-1-203 145 0 145 0 0 187 c0 200-12 292-40 291-8 0-22 2-30 5-8 3-26-1-40-9z"/><path d="M3917 3512 c-3-15-9-36-13-47-12-33 4-11 21 27 8 21 11 39 6 42-5 3-11-7-14-22z"/><path d="M3842 3379 c-19-21-49-44-68-51-29-10-47-28-28-28 22 0 119 73 135 101 16 31-4 20-39-22z"/><path d="M4120 3383 c-14-3-29-9-34-14-6-5-18-9-28-9-10 0-29-7-41-14-12-8-31-14-42-12-11 2-33-7-48-20-15-13-44-26-65-29-61-9-87-20-87-35 0-8-16-17-39-22-22-5-47-15-55-22-9-8-28-17-43-21-14-4-34-15-44-26-9-10-32-22-51-25-19-4-37-12-40-20-2-7-18-16-35-19-23-6-27-9-17-17 30-20-58 6-114 34-33 16-56 24-52 18 10-16 84-52 140-66 64-18 196-18 260 0 89 24 188 95 222 159 19 38 26 28 28-41 1-31 3-72 4-89 l1-33 140 0 140 0 0 143 c0 78-3 152-6 165-6 23-30 26-94 15z"/><path d="M3484 3335 c30-24 66-39 66-27-1 4-22 17-48 29 l-47 22 29-24z"/><path d="M9275 3197 c-8-13-33-36-55-52-73-53-89-69-45-44 45 25 102 75 116 102 14 25 2 21-16-6z"/><path d="M2054 3165 c0-14 4-25 8-25 4 0 8 11 8 25 0 14-4 25-8 25-4 0-8-11-8-25z"/><path d="M8669 3136 c38-29 41-30 41-18 0 5-12 15-27 23-47 23-49 22-14-5z"/><path d="M8720 3112 c0-5 11-14 25-20 14-6 25-10 25-8 0 2-11 11-25 20-14 9-25 13-25 8z"/><path d="M8873 3053 c9-2 25-2 35 0 9 3 1 5-18 5-19 0-27-2-17-5z"/><path d="M4253 1761 c-50-13-165-75-205-111-52-46-117-157-140-238-11-40-20-109-22-172-3-86-2-92 3-35 4 39 8 60 9 48 1-13 11-25 25-29 12-4 33-15 46-25 18-15 27-16 37-8 14 12 36 1 60-30 9-11 18-12 41-3 25 8 34 7 47-6 15-15 16-12 16 38 1 143 54 243 159 298 148 76 312 19 388-136 25-50 28-68 28-152 0-109-12-152-62-216-19-25-32-48-30-50 6-6 67 67 67 81 0 5 7 0 15-11 10-16 29-23 71-27 31-3 60-11 64-17 4-6 37-12 74-14 61-2 69 0 76 18 5 13 9-48 9-151 l1-172-137-4-138-3 143-2 142-2 0 565 0 566-142-3-143-3-5-98-5-98-39 50 c-85 113-165 152-316 157-58 2-119 0-137-5z"/><path d="M7505 1760 c-190-41-324-167-350-327 l-7-43 135 0 135 0 12 36 c28 84 115 139 220 138 66 0 114-23 135-64 51-99-22-171-220-216-255-57-365-121-395-229-14-51-8-80 16-71 9 4 23 1 31-5 11-10 22-8 51 8 47 26 101 36 118 23 9-8 14-6 18 7 4 10 33 30 66 45 67 30 81 29 21-2-39-19-81-63-81-83 0-6 16 8 35 30 38 45 50 50 248 104 78 21 114 35 105 40-7 5-8 9-2 9 5 0 14-4 20-9 13-13 129 44 167 83 116 117 109 319-15 431-22 21-71 51-107 68-60 27-77 30-191 33-69 2-143-1-165-6z"/><path d="M3023 1731 c6-17 14-31 18-31 11 0-2 38-16 50-11 10-12 6-2-19z"/><path d="M3380 1635 c0-139-8-120 77-194 31-27 98-62 125-65 4-1 13-7 20-13 29-30 46-10 50 55 2 20 5-206 8-503 l5-540 0 690 0 690-142 3-143 3 0-126z"/><path d="M5295 1748 c-3-7-4-260-3-563 l3-550 140 0 140-1-137 3-138 4 0 97 c0 113 8 174 23 165 5-3 43-7 84-8 40-2 80-8 87-14 7-6 29-8 51-4 38 6 38 6 32-23-3-16-2-45 3-64 l8-35 1 33 c1 31 21 48 21 17 0-8 5-15 10-15 6 0 4 13-5 29-20 39-11 59 25 57 16-1 32 4 34 11 4 10 13 8 38-6 18-11 51-22 73-26 33-5 29-1-28 21-55 22-76 37-106 74-56 71-62 115-64 485 l-2 320-143 3 c-108 2-144 0-147-10z"/><path d="M6107 1753 c-4-3-7-158-7-343 0-383-4-411-68-476-23-24-61-48-97-62-55-20-56-22-21-18 22 3 62 19 90 36 27 17 44 25 38 17-7-7-8-18-4-22 4-5-1-6-10-2-10 3-19 0-22-9-9-23-8-24 24-7 24 12 34 12 45 3 12-10 15-10 15 0 0 9 4 9 13 2 7-6 32-8 57-6 25 3 70 6 101 8 32 1 65 8 74 16 16 14 17 13 10-10-23-79-95-164-172-204-45-22-42-28 5-10 49 21 116 86 152 150 56 100 60 134 60 558 l0 386-138 0 c-76 0-142-3-145-7z"/><path d="M6649 1733 c-9-64 2-797 11-783 7 12 10 8 10-14 0-25 3-28 26-22 14 4 31 3 37-2 14-11 167 14 182 29 6 6 11 157 13 414 l3 405-139 0-140 0-3-27z"/><path d="M8272 1448 c1-172 4-265 5-207 l4 106 24-5 c16-3 25 0 25 8 0 8 9 11 25 8 15-3 25-1 25 6 0 6 31 31 69 56 76 49 90 69 93 133 1 23 5-68 8-203 l6-245-1 325 0 325-142 3-143 3 2-313z"/><path d="M9083 1710 c0-25 2-35 4-22 2 12 2 32 0 45-2 12-4 2-4-23z"/><path d="M3045 1670 c4-14 12-29 17-35 7-7 8-2 3 15-4 14-12 30-17 35-7 7-8 2-3-15z"/><path d="M3103 1516 c4-10 7-22 7-27 0-5 4-9 9-9 12 0 2 38-12 47-7 4-8 0-4-11z"/><path d="M7785 989 c-4-6-4-13-1-16 3-4 6-1 6 5 0 9 37 12 126 12 l125 0-6-22 c-6-18-5-20 5-11 7 6 10 19 7 27-5 13-27 16-131 16-78 0-127-4-131-11z"/><path d="M4220 984 c0-25 103-104 135-103 15 0 12 3-10 11-16 6-51 31-77 56-27 26-48 42-48 36z"/><path d="M4605 909 c-16-10-25-19-19-19 7 0 22 9 35 20 30 24 23 24-16-1z"/><path d="M7290 692 c0-5 18-16 40-25 22-8 40-14 40-11 0 2-18 13-40 24-22 11-40 16-40 12z"/></g><g fill="#f14037"><path d="M5822 3506 c-22-10-23-15-17-59 4-33 3-47-5-42-5 3-10 1-10-4 0-6 4-11 10-11 5 0 7-6 4-13-10-27 65-154 121-206 100-91 206-126 360-119 81 3 101 8 159 38 66 33 151 108 162 143 18 57 24-8 24-263 l0-280 145 0 145 0 0 329 c0 182-4 332-9 335-5 3-12 20-15 38-10 53-21 62-83 69-32 4-68 10-80 14-19 6-23 4-23-13 0-40-19-32-22 9-3 43-28 69-28 30 0-12-13-33-30-47-16-15-32-36-36-46-3-11-13-18-22-16-10 2-24-6-33-17-9-11-39-32-65-45-42-21-63-25-139-25-96 0-147 18-189 64-10 11-24 18-30 14-6-3-8-3-4 2 11 12-11 45-26 39-8-3-18 7-26 26-23 55-53 70-139 69-42-1-87-7-99-13z"/><path d="M5500 3495 c-8-10-17-12-24-6-7 6-41 7-81 3-70-7-70-7-82-44-16-48-38-326-29-361 l7-28 137 3 137 3 3 168 c1 102-1 166-7 163-5-3-12 16-16 43-8 58-26 79-45 56z"/><path d="M8776 3458 c29-50 68-100 86-109 14-7 4 9-25 42-26 29-47 59-47 66 0 7-5 13-11 13-5 0-7-6-3-12z"/><path d="M4650 3368 c-29-12-41-16-92-24-44-7-51-23-67-154-17-136-23-130 135-130 l134 0 0 123 c0 82-3 117-10 107-8-12-10-9-10 13 0 15-6 30-14 33-8 3-16 14-19 25-6 21-20 23-57 7z"/><path d="M7197 3348 c-3-18-10-55-15-83-4-27-8-167-8-310 l1-260 145-3 145-3 0 185 c0 101-3 182-6 180-12-7-20 216-9 236 9 16 7 21-7 26-10 3-40 16-68 29-27 13-78 26-111 30 l-62 5-5-32z"/><path d="M7466 3325 c-3-9 3-20 14-27 11-7 20-17 20-23 0-6 10-26 23-45 24-35 40-70 33-70-3 0-24 30-47 68-31 48-44 62-47 49-2-10 3-24 10-30 8-7 34-36 57-64 24-29 48-53 54-53 6 0 2 7-9 15-12 9-14 14-6 15 8 0 26-10 40-22 15-12 19-18 10-15-33 12-18-9 18-26 19-10 33-13 29-8-3 5 3 9 14 8 15-1 17-4 9-14-8-10-5-13 13-14 13-1 31-2 41-3 9-1 20-4 24-8 11-12 54-10 54 2 0 6 19 10 43 9 36-1 38-2 17-9-22-7-20-8 15-9 28 0 36 2 25 9-18 11-14 14 29 26 39 11 54 34 22 34-12 0-21 5-21 10 0 6 5 10 10 10 6 0 10 4 10 9 0 4-30 16-66 26-36 10-68 24-71 31-3 8-18 14-34 14-17 0-40 7-53 15-12 8-45 18-72 21-58 8-153 49-161 70-7 19-39 18-47-1z"/><path d="M3165 3250 c20-36 60-82 79-92 16-9-22 39-82 102-3 3-1-2 3-10z"/><path d="M4103 3198 c-2-5-15-8-29-8-17 0-27-8-34-26-6-14-23-31-40-37-61-23-19-44 99-48 l36-2-40-7 c-39-7-38-7 17-9 85-2 88 1 88 76 0 40-4 62-10 58-5-3-10-2-10 3 0 10-70 10-77 0z"/><path d="M3930 3151 c0-12 5-21 10-21 6 0 10 6 10 14 0 8-4 18-10 21-5 3-10-3-10-14z"/><path d="M4260 1761 c-92-20-230-111-269-177-21-35-30-63-11-34 16 25 11-1-10-58-11-29-20-62-20-73 0-18 4-21 29-16 25 5 31 2 41-23 7-17 16-27 21-24 5 3 9 0 9-5 0-18 38-12 50 7 9 16 11 15 29-5 25-30 27-29 46 10 8 17 24 43 35 57 19 24 19 24 13 2-3-12-9-25-14-28-5-3-9-10-9-17 0-6 14 8 30 30 17 23 54 56 83 74 44 27 64 33 129 37 69 4 84 2 131-22 66-32 118-83 143-139 10-23 22-45 27-48 5-4 6-16 3-27-4-12-1-26 9-35 8-9 15-28 15-44 0-15 10-40 23-55 19-22 32-27 91-32 38-4 79-9 92-12 21-5 24-1 36 58 l13 63 6-60 c3-33 6 87 7 268 l2 327-129 0 c-71 0-136-3-145-6-13-5-16-24-16-103 l0-96-27 35 c-53 70-124 129-181 151-61 24-215 35-282 20z"/><path d="M7505 1760 c-185-39-321-163-348-317-6-29-3-33 26-42 30-10 180-9 220 1 10 2 27 22 36 44 36 78 106 117 213 118 40 0 73-5 80-12 7-7 20-12 31-12 10 0 16-4 12-10-3-5 2-17 12-27 12-12 17-30 15-55-2-22 1-38 7-38 24 0 9-41-24-67-38-31-44-43-19-43 9 0 18 9 21 19 4 16 9 18 22 9 13-8 27-4 61 15 39 22 116 49 144 51 17 2 24 91 11 145-6 25-5 32 3 27 23-14 12 15-15 41-16 15-21 23-13 18 8-4-1 9-20 29-19 20-60 48-90 62-30 14-64 31-75 37-25 13-256 19-310 7z"/><path d="M5295 1748 c-3-7-4-260-3-563 l3-550 140 0 140-1-137 3-138 4 0 192 c0 105 3 217 7 247 l7 55 11-45 c8-34 16-45 31-45 10-1 26-5 34-10 8-5 27-8 43-7 16 1 43-4 60-13 30-15 32-15 54 12 12 16 22 36 23 47 0 14 3 16 14 7 11-9 12-7 9 11-2 13-5 167-6 343 l-2 320-143 3 c-108 2-144 0-147-10z"/><path d="M6107 1753 c-12-11-8-683 3-683 6 0 10-6 10-12 0-7 5-20 10-28 9-13 11-13 19-1 8 12 12 11 27-3 13-14 27-17 53-12 20 3 57 6 83 6 43 0 47 2 53 30 4 17 11 28 16 24 5-3 9 133 9 340 l0 346-138 0 c-76 0-142-3-145-7z"/><path d="M6649 1733 c-7-50 9-486 21-585 11-85 15-98 31-98 11 0 19 4 19 10 0 5 7 7 15 4 21-8 157 26 175 44 12 13 15 67 19 334 l3 318-140 0-140 0-3-27z"/><path d="M3465 1720 c-3-5 1-10 9-10 9 0 16-4 16-9 0-10 38-24 58-22 6 1 12-5 12-14 0-9-9-15-25-15-41 0-29-17 18-24 83-14 82-14 82 24 1 19 4 45 9 58 7 22 6 22-83 22-49 0-93-4-96-10z"/><path d="M8303 1663 c6-73 14-103 28-103 5 0 9 8 9 18 1 21 20 46 42 55 10 3 16 12 13 19-3 8 15 22 48 37 49 22 51 24 27 31-14 5-58 8-98 9 l-74 1 5-67z"/><path d="M8058 1440 c2-22 6-40 8-40 2 0 4 18 4 40 0 22-3 40-8 40-4 0-6-18-4-40z"/><path d="M7660 1280 c-12-8-12-10 2-15 26-10 43-2 26 12-8 7-19 8-28 3z"/><path d="M7520 1240 c-14-5-44-14-68-21-24-7-39-16-34-21 11-11 95 7 100 21 2 6 19 11 38 11 19 0 34 5 34 10 0 12-34 11-70 0z"/><path d="M7337 1184 c-4-4-4-10-1-15 6-10 34 0 34 12 0 10-24 12-33 3z"/></g><g fill="#bb47b1"><path d="M3930 4085 c0-69-3-94-11-89-7 4-10 1-7-7 3-8 12-15 21-17 15-3 17 9 17 97 0 56-4 103-10 106-6 4-10-28-10-90z"/><path d="M5973 4114 l-28-26 33 18 c17 10 32 22 32 26 0 13-7 9-37-18z"/><path d="M4624 4108 l-19-21 28 18 c28 18 33 25 19 25-5 0-17-10-28-22z"/><path d="M5170 4103 c0-5 14-22 31-39 23-21 29-23 21-9-13 25-52 62-52 48z"/><path d="M6632 4056 c-2-47-5-57-17-52-19 7-19-5-1-30 13-17 15-17 21-3 3 9 4 45 2 80 l-3 64-2-59z"/><path d="M9625 3580 c0-289 1-407 2-262 2 144 2 380 0 525-1 144-2 26-2-263z"/><path d="M5250 4002 c0-5 7-17 15-28 14-19 14-19 15 2 0 12-7 24-15 28-8 3-15 2-15-2z"/><path d="M5848 3980 c-9-17-14-30-10-30 4 0 15 14 24 30 9 17 14 30 10 30-4 0-15-14-24-30z"/><path d="M2870 3700 c-3-129-4-237-2-239 10-17 12 36 10 240 l-3 234-5-235z"/><path d="M4827 3891 c-19-22-40-50-46-63-9-17-6-15 11 7 13 16 36 42 51 58 15 16 26 31 24 33-2 3-20-13-40-35z"/><path d="M6470 3921 c0-5 9-13 20-16 11-4 34-24 52-46 17-21 36-39 42-39 5 0-10 21-34 46-49 49-80 71-80 55z"/><path d="M6146 3889 c-20-17-34-34-31-37 3-3 17 6 30 20 13 14 30 28 37 31 7 2 10 7 7 11-4 4-23-7-43-25z"/><path d="M3449 3883 l-24-28 30 25 c17 14 32 26 34 28 2 1 0 2-6 2-5 0-20-12-34-27z"/><path d="M3818 3890 c12-11 24-20 28-20 4 0-1 9-11 20-10 11-23 20-28 20-6 0-1-9 11-20z"/><path d="M3856 3852 c6-4 21-23 33-42 11-19 21-31 21-26 0 17-42 76-53 76-9 0-9-2-1-8z"/><path d="M6085 3809 c-9-17-15-33-13-35 3-2 12 12 21 31 21 43 13 47-8 4z"/><path d="M3371 3769 c-6-18-11-41-10-53 0-12 6 2 14 29 15 57 13 72-4 24z"/><path d="M8475 3750 c-4-12-5-24-2-27 3-2 8 5 12 17 4 12 5 24 2 27-3 2-8-5-12-17z"/><path d="M4753 3695 c0-27 2-38 4-22 2 15 2 37 0 50-2 12-4 0-4-28z"/><path d="M3353 3625 c0-38 2-53 4-32 2 20 2 52 0 70-2 17-4 1-4-38z"/><path d="M3931 3620 c0-51 3-69 9-55 5 11 9 36 9 55 0 19-4 44-9 55-6 14-9-4-9-55z"/><path d="M8461 3624 c0-21 4-48 9-59 6-14 8-4 6 32-3 61-16 85-15 27z"/><path d="M3361 3529 c0-13 4-33 9-44 7-14 8-8 3 20-7 46-13 59-12 24z"/><path d="M3918 3512 c-3-15-9-36-13-47-5-11-5-18-2-14 14 12 36 78 28 83-5 3-11-7-13-22z"/><path d="M8776 3460 c20-41 67-101 87-111 16-9 13-2-13 27-19 21-45 53-58 69-13 17-20 23-16 15z"/><path d="M9884 3265 c0-115 2-161 3-102 2 59 2 154 0 210-1 56-3 8-3-108z"/><path d="M2857 3414 c-4-4-7-17-7-28 1-19 1-20 11-3 11 19 8 43-4 31z"/><path d="M2508 3359 c-21-21-34-39-29-39 9 0 71 66 71 75 0 8-3 5-42-36z"/><path d="M2157 3339 c12-12 25-20 28-17 3 3-7 13-22 23 l-28 17 22-23z"/><path d="M3466 3348 c8-12 84-50 84-41-1 5-21 17-45 29-24 11-42 17-39 12z"/><path d="M8520 3336 c0-11 30-66 36-66 2 0-3 15-12 33-19 36-24 44-24 33z"/><path d="M8890 3336 c0-2 11-11 25-20 14-9 25-13 25-8 0 5-11 14-25 20-14 6-25 10-25 8z"/><path d="M9317 3263 c-19-35-15-42 9-18 9 8 14 23 12 33-3 13-8 9-21-15z"/><path d="M2056 3264 c-8-21 4-41 14-24 5 8 13 2 26-19 10-17 22-31 26-31 4 0-4 16-17 36-14 20-25 41-25 45 0 15-18 10-24-7z"/><path d="M3916 3264 c-8-22-8-26 4-19 6 3 10-4 11-17 l0-23 9 23 c10 23 4 52-10 52-4 0-11-7-14-16z"/><path d="M3168 3245 c12-24 78-95 88-95 4 0-15 24-41 53-27 28-51 54-53 57-3 3 0-4 6-15z"/><path d="M8560 3252 c0-9 57-72 65-72 4 0-8 18-25 40-32 40-40 47-40 32z"/><path d="M2749 3178 c-24-29-35-46-24-38 11 8 26 23 33 32 7 9 20 24 28 33 9 9 14 18 12 21-3 2-25-20-49-48z"/><path d="M9275 3197 c-8-13-33-36-55-52-75-54-88-67-45-44 44 25 101 74 116 102 14 25 2 21-16-6z"/><path d="M2054 3164 c0-13 4-24 8-24 4 0 8 9 8 19 0 11-4 22-8 25-4 2-8-6-8-20z"/><path d="M8640 3158 c21-19 70-48 70-40 0 5-12 15-27 23-36 17-49 23-43 17z"/><path d="M3285 3131 c3-6 20-18 37-27 16-9 27-11 23-5-3 6-20 18-37 27-16 9-27 11-23 5z"/><path d="M2050 3065 c0-8 5-15 10-15 6 0 10 7 10 15 0 8-4 15-10 15-5 0-10-7-10-15z"/><path d="M2057 3023 c-10-16-6-306 5-295 5 5 7 76 6 158-2 82-6 144-11 137z"/><path d="M2416 1727 c-12-41-2-915 11-928 7-7 12-4 16 10 3 12 1 21-4 21-5 0-10 198-11 463-2 283-6 451-12 434z"/><path d="M2751 1688 c-12-34-17-58-12-53 15 15 50 115 41 115-5 0-18-28-29-62z"/><path d="M8554 1380 c0-151 2-213 3-137 2 75 2 199 0 275-1 75-3 13-3-138z"/><path d="M2891 1391 c-6-11-11-28-10-38 0-14 2-13 10 5 5 13 13 20 19 17 5-3 10 1 10 9 0 24-18 28-29 7z"/><path d="M2631 1359 c-6-18-11-37-10-43 0-6 7 7 15 28 8 22 12 41 10 43-2 2-9-10-15-28z"/><path d="M3665 880 c0-278 1-391 2-253 2 139 2 367 0 505-1 139-2 26-2-252z"/><path d="M3883 1195 c0-38 2-53 4-32 2 20 2 52 0 70-2 17-4 1-4-38z"/><path d="M3892 1060 c0-19 2-27 5-17 2 9 2 25 0 35-3 9-5 1-5-18z"/><path d="M5295 820 l0-185 140 0 140-1-137 3-138 4-3 182-3 182 1-185z"/><path d="M7853 993 c37-2 96-2 130 0 34 2 4 3-68 3-71 0-99-1-62-3z"/><path d="M4220 984 c0-23 103-105 130-103 8 0 3 6-13 13-15 7-47 32-72 56-25 24-45 40-45 34z"/><path d="M5030 810 l0-169-137-4-138-3 143-2 142-2 0 175 c0 96-2 175-5 175-3 0-5-76-5-170z"/><path d="M8609 964 c13-26 77-84 94-84 7 0-2 9-19 19-17 10-43 34-58 52-15 19-23 24-17 13z"/><path d="M9009 932 c-2-5-20-19-39-31-19-11-28-21-20-21 19 1 76 47 68 55-3 4-8 2-9-3z"/><path d="M3327 890 c3-11 10-23 16-27 7-4 8 0 4 11-4 10-7 22-7 27 0 5-4 9-9 9-5 0-7-9-4-20z"/><path d="M3955 861 c8-17 19-33 25-36 5-3 1 10-11 29-25 43-36 48-14 7z"/><path d="M7430 881 c0-9 49-56 53-50 1 2-10 16-25 31-15 15-28 23-28 19z"/><path d="M7699 864 c-21-24-22-26-3-16 25 13 50 42 37 42-5 0-20-12-34-26z"/><path d="M4735 840 c-3-11-18-34-32-50-13-17-20-30-15-30 6 0 20 16 32 35 12 19 26 33 31 29 5-3 9 2 9 10 0 24-18 28-25 6z"/><path d="M5582 803 c1-37 2-40 5-15 2 17 8 32 13 32 5 0 7 7 4 15-12 31-24 13-22-32z"/><path d="M8557 843 c-4-3-6-130-5-282 l3-276 2 267 c3 238 5 267 20 270 14 3 14 4 1 15-8 7-18 10-21 6z"/><path d="M6934 745 c0-49 1-71 3-48 2 23 2 64 0 90-2 26-3 8-3-42z"/><path d="M3362 808 c6-18 28-21 28-4 0 9-7 16-16 16-9 0-14-5-12-12z"/><path d="M3990 804 c0-6 14-23 30-39 17-16 30-24 30-19 0 6-13 23-30 39-16 16-30 24-30 19z"/><path d="M7945 780 c-16-16-27-31-24-33 2-2 17 11 32 30 36 41 31 43-8 3z"/><path d="M5630 773 c0-12 38-48 45-41 3 2-6 15-20 28-14 13-25 19-25 13z"/><path d="M6295 772 c-5-4-17-16-25-27-11-15-7-14 13 4 24 22 32 31 25 31-2 0-7-4-13-8z"/><path d="M7225 748 c15-18 35-37 44-42 9-5-2 10-24 33-47 49-57 54-20 9z"/><path d="M9235 740 c-21-22-36-40-32-40 8 0 77 69 77 76 0 8-7 3-45-36z"/><path d="M7865 710 c-22-16-46-29-52-30-7 0-13-4-13-9 0-16 35-1 75 34 49 42 44 44-10 5z"/><path d="M8650 725 c0-7 80-58 84-54 2 2-16 16-40 31-24 15-44 25-44 23z"/><path d="M6204 697 c-18-12-40-28-50-34-11-7-1-5 21 5 39 17 88 53 69 51-5 0-23-10-40-22z"/><path d="M5732 685 c9-10 21-16 28-13 7 2-1 10-16 17-27 12-28 11-12-4z"/><path d="M7290 693 c0-5 18-16 40-25 52-21 52-14 0 12-22 11-40 17-40 13z"/><path d="M6723 633 c37-2 97-2 135 0 37 2 6 3-68 3-74 0-105-1-67-3z"/><path d="M4303 623 c9-2 25-2 35 0 9 3 1 5-18 5-19 0-27-2-17-5z"/><path d="M6003 623 c9-2 25-2 35 0 9 3 1 5-18 5-19 0-27-2-17-5z"/><path d="M7488 623 c12-2 32-2 45 0 12 2 2 4-23 4-25 0-35-2-22-4z"/><path d="M7618 623 c12-2 30-2 40 0 9 3-1 5-23 4-22 0-30-2-17-4z"/><path d="M6632 395 c-17-37-14-45 4-12 9 16 14 31 11 33-2 2-9-7-15-21z"/><path d="M6613 315 c0-22 2-30 4-17 2 12 2 30 0 40-3 9-5-1-4-23z"/><path d="M6906 209 c-11-11-15-19-9-19 12 0 38 28 32 34-2 2-13-5-23-15z"/></g><g fill="#ea8ed1"><path d="M8463 3615 c0-22 2-30 4-17 2 12 2 30 0 40-3 9-5-1-4-23z"/><path d="M3926 3243 c10-40 14-41 14-5 0 18-5 32-10 32-6 0-8-11-4-27z"/><path d="M2420 815 c0-8 4-15 9-15 5 0 11 7 15 15 3 9 0 15-9 15-8 0-15-7-15-15z"/></g></svg>