<svg version="1.0" xmlns="http://www.w3.org/2000/svg" width="1200px" height="488px" viewBox="0 0 12000 4880" preserveAspectRatio="xMidYMid meet"><g fill="#000000"></g><g fill="#ffffff"><path d="M10820 4712 c0-9 39-96 111-249 16-34 29-68 29-75 0-8 4-18 9-23 4-6 29-56 54-112 l45-103-18-37 c-10-21-35-78-56-128-20-49-46-110-57-135-30-68-81-188-111-260-15-36-43-99-61-140-75-166-89-198-121-280-19-47-34-91-34-97 0-10 37-13 153-13 l153 0 17 35 c9 20 17 44 17 53 0 10 4 22 9 27 5 6 26 53 46 105 20 52 47 122 61 155 14 33 29 69 33 80 5 11 22 54 40 95 17 41 39 99 49 129 10 30 23 56 29 58 11 4 31-40 63-137 18-53 54-150 160-430 28-74 54-143 57-152 5-16 21-18 159-18 117 0 154 3 154 13 0 6-12 39-26 72-14 33-38 92-53 130-15 39-37 90-49 115-21 46-54 127-143 350-27 69-56 139-64 155-17 35-83 197-127 310-17 44-35 85-39 91-5 6-24 51-43 100-58 150-106 268-121 294-14 25-15 25-169 28-86 1-156-1-156-6z"/><path d="M715 4175 c-115-30-165-52-241-108-66-49-163-169-194-242-92-216-102-425-28-639 56-162 170-305 298-371 64-33 214-75 291-81 129-11 318 28 418 87 138 81 245 211 287 348 26 85 32 81-129 81 l-143 0-43-66 c-57-86-121-136-213-164-139-42-280-12-383 82-30 27-55 55-55 61 0 6-7 18-16 28-8 9-26 49-40 89-20 60-24 91-24 191 0 101 4 128 24 183 68 179 196 276 366 276 94 0 190-29 247-76 55-44 60-50 109-122 l35-53 142 3 142 3-3 25 c-7 48-55 156-97 215-47 66-121 139-160 157-14 6-25 15-25 19 0 12-126 58-216 79-116 27-234 26-349-5z"/><path d="M3409 4177 c-36-13-86-35-111-50-99-57-184-190-215-332-31-141-16-345 33-451 13-28 24-56 24-62 0-6 3-12 8-14 4-1 20-22 36-46 29-42 93-95 157-128 120-62 321-59 434 6 51 30 112 87 132 123 19 38 26 28 28-41 1-31 3-72 4-89 l1-33 140 0 140 0 1 243 c1 133 1 269 1 302 0 33-1 178-1 323 l-1 262-129 0 c-71 0-136-3-145-6-13-5-16-24-17-103 0-79-2-92-12-77-37 61-106 121-177 154-67 32-85 36-170 39-78 2-107-2-161-20z m345-251 c110-49 167-138 174-274 12-221-107-361-298-350-182 10-284 147-267 362 3 40 12 89 21 110 61 146 228 215 370 152z"/><path d="M4805 4193 c-132-30-228-104-283-218-48-100-52-137-52-540 l0-375 145 0 144 0 3 364 3 364 40 57 c57 82 108 109 206 110 112 0 185-44 234-142 l30-58 3-348 3-348 142 3 142 3 0 560 0 560-120 3 c-174 4-165 10-165-98 0-50-4-90-8-90-5 0-22 20-39 44-64 90-209 157-336 155-40-1-81-3-92-6z"/><path d="M6105 4177 c-96-32-122-47-181-106-60-59-92-110-130-207-25-65-27-79-27-234 0-145 3-173 22-230 36-103 80-177 138-230 98-90 205-125 358-118 81 3 101 8 159 38 66 33 151 108 162 143 18 57 24-8 24-263 l0-280 145 0 145 0-2 748-3 747-140 0-140 0-3-92 c-1-51-7-93-11-93-5 0-15 10-24 23-36 54-97 106-162 137-61 29-82 34-165 37-79 3-106 0-165-20z m332-248 c68-25 135-89 166-159 26-56 30-224 8-280-25-62-88-135-138-161-67-34-207-35-269-2-100 53-149 153-148 298 2 171 52 247 204 313 41 17 115 14 177-9z"/><path d="M8808 4176 c-135-47-218-119-275-238-42-87-50-119-63-228-24-208 36-416 152-530 109-107 263-153 422-125 112 20 189 69 264 168 l21 29 3-94 3-93 148-3 147-3 0 560 0 560-140 3 c-77 2-145 2-150 0-6-2-10-45-10-99 l0-96-42 56 c-53 68-112 108-202 136-92 28-190 27-278-3z m364-260 c60-30 101-74 137-143 17-35 21-60 21-146 0-89-3-110-25-154-58-122-131-168-265-168-101 0-150 22-211 95-67 80-88 227-49 351 26 84 69 135 144 171 82 38 165 36 248-6z"/><path d="M2713 4182 l-122-3-3-342 c-4-371-6-387-64-462-37-49-125-90-194-90-111 0-218 81-251 190-8 26-13 154-16 373 l-5 332-144 0-144 0 0-745 0-745 144 0 145 0 6 43 c4 24 5 145 2 270-2 124-1 230 3 237 4 7 13 2 25-16 39-59 82-96 154-132 74-37 76-37 200-37 121 0 129 1 191 32 71 34 141 98 169 153 10 19 29 64 42 100 23 63 24 75 27 451 l3 386-23 4 c-13 2-78 3-145 1z"/><path d="M7182 4182 c-10-7-12-162-10-748 l3-739 148-3 148-3-2 276 c-1 151 0 277 2 280 3 2 26-23 51-55 37-46 63-67 122-96 64-31 87-37 163-41 221-13 374 81 438 270 25 73 30 198 25 542 l-5 320-135 0-135 0-5-345-5-345-26-60 c-32-72-85-118-166-141-48-14-65-15-112-4-91 20-168 87-201 175-5 14-10 174-10 357-1 196-5 339-11 350-9 16-24 18-137 18-70 0-133-4-140-8z"/><path d="M9880 3620 l0-560 145 0 145 0 0 100 0 100 69-70 c80-82 164-126 257-136 58-6 61-5 67 17 8 30 9 236 1 265-5 20-14 22-103 26-83 4-105 9-151 34-67 36-115 97-129 164-7 30-11 168-11 335 l0 285-145 0-145 0 0-560z"/><path d="M4253 1761 c-50-13-165-75-205-111-52-46-117-157-140-238-45-158-31-390 31-515 50-99 57-109 113-159 135-123 346-154 515-77 44 20 134 101 166 149 15 24 16 21 16-77 l1-103 145 0 145 0 0 565 0 566-142-3-143-3-5-98-5-98-39 50 c-85 113-165 152-316 157-58 2-119 0-137-5z m323-266 c66-33 107-75 141-143 25-51 28-68 28-157 0-89-3-106-28-156-67-138-200-196-348-153-67 19-139 86-169 156-48 111-35 269 29 360 76 109 231 151 347 93z"/><path d="M7520 1764 c-197-38-339-167-365-331 l-7-43 135 0 135 0 12 36 c28 84 115 139 220 138 66 0 114-23 135-64 51-99-22-171-220-216-242-54-349-112-390-211-23-55-20-202 5-256 64-137 216-206 428-195 161 9 264 57 354 166 38 47 95 183 83 202-4 6-55 10-130 10 l-124 0-19-42 c-10-24-39-62-64-84-39-36-53-43-104-48-78-9-131 8-161 53-32 48-30 92 7 135 34 38 55 46 245 96 205 54 276 91 325 172 58 93 62 194 14 295-31 65-89 117-173 156-61 28-76 30-191 33-69 1-136 0-150-2z"/><path d="M2137 1754 c-4-4-7-322-7-706 l0-698 181 2 182 3 44 115 c24 63 50 131 57 150 20 53 76 191 91 225 7 17 25 62 40 100 14 39 38 96 51 128 14 32 36 88 49 125 34 98 76 185 85 175 10-10 70-152 70-164 0-4 17-50 39-101 49-118 121-304 121-312 0-4 8-26 18-49 10-23 26-60 34-82 9-22 30-74 46-115 17-41 38-97 48-125 10-27 22-56 27-62 7-10 56-13 183-13 l174 0-2 703-3 702-142 3-143 3 0-471 c0-258-3-470-8-470-6 0-21 35-67 165-10 28-35 95-55 150-21 55-40 109-43 120-3 11-17 52-32 90-15 39-34 93-42 120-8 28-19 55-23 60-4 6-22 55-40 110-18 55-37 106-43 113-7 9-42 12-131 10 l-121-3-27-80 c-16-44-39-109-52-145-35-91-98-263-150-410-54-152-94-260-104-280-4-8-9 194-12 450 l-5 465-141 3 c-77 1-143-1-147-4z"/><path d="M5295 1748 c-3-7-4-260-3-563 l3-550 145 0 145 0 3 93 c1 50 7 92 12 92 6 0 10-7 10-15 0-26 98-114 155-140 77-36 148-48 240-43 147 10 258 76 325 194 56 100 60 134 60 558 l0 387-142-3-143-3-5-360 c-6-398-6-400-72-466-99-99-291-88-378 22-55 70-61 115-63 484 l-2 320-143 3 c-108 2-144 0-147-10z"/><path d="M6649 1733 c-2-16-3-270-1-565 l2-538 139 0 c124 0 139 2 143 18 2 9 2 263 0 565 l-4 547-138 0-138 0-3-27z"/><path d="M8270 1010 l0-750 145 0 145 0 0 280 c0 154 3 280 8 280 4 0 18-16 31-35 36-53 88-94 161-129 61-29 72-31 185-31 114 0 123 2 185 31 105 50 175 129 214 243 18 51 20 92 23 459 l4 403-143-3-143-3-5-360-5-361-34-56 c-50-82-109-113-216-113-120 0-187 44-239 155-20 42-21 67-26 390 l-5 345-142 3-143 3 0-751z"/><path d="M6693 449 c-59-29-77-61-77-134 0-73 19-106 78-135 57-27 129-26 186 3 76 39 101 126 60 206-38 75-158 104-247 60z"/></g></svg>